<svg width="26" height="26" viewBox="0 0 26 26" fill="none" xmlns="http://www.w3.org/2000/svg">
<circle cx="13" cy="13" r="13" fill="white"/>
<path d="M17.952 9.18402C17.952 10.256 17.816 11.072 17.544 11.632C17.288 12.192 16.752 12.792 15.936 13.432C15.12 14.072 14.576 14.584 14.304 14.968C14.048 15.336 13.92 15.736 13.92 16.168V16.96H11.808C11.424 16.464 11.232 15.84 11.232 15.088C11.232 14.688 11.384 14.288 11.688 13.888C11.992 13.488 12.536 12.968 13.32 12.328C14.104 11.672 14.624 11.168 14.88 10.816C15.136 10.448 15.264 9.96802 15.264 9.37602C15.264 8.20802 14.416 7.62402 12.72 7.62402C11.76 7.62402 10.752 7.73602 9.696 7.96002L9.144 8.08002L9 6.08802C10.488 5.56002 11.84 5.29602 13.056 5.29602C14.736 5.29602 15.968 5.60802 16.752 6.23202C17.552 6.84002 17.952 7.82402 17.952 9.18402ZM11.4 22V18.64H14.184V22H11.4Z" fill="#595E74"/>
</svg>
